<svg xmlns="http://www.w3.org/2000/svg" xmlns:xlink="http://www.w3.org/1999/xlink" xmlns:serif="http://www.serif.com/" width="100%" height="100%" viewBox="0 0 134 132" xml:space="preserve" style="fill-rule:evenodd;clip-rule:evenodd;stroke-linejoin:round;stroke-miterlimit:2;">    <g transform="matrix(1,0,0,1,-11382.7,-2901.53)">        <g transform="matrix(1,0,0,2.1264,11039.5,2871.83)">            <g transform="matrix(-66.4659,-54.1394,115.122,-31.2576,442.109,72.4332)">                <path d="M0.932,0.257C1,0.138 1.017,0.012 0.982,-0.121C0.947,-0.255 0.872,-0.356 0.753,-0.425C0.631,-0.495 0.505,-0.512 0.375,-0.476C0.244,-0.44 0.144,-0.36 0.074,-0.238C0.001,-0.113 -0.018,0.014 0.016,0.145C0.05,0.276 0.127,0.377 0.249,0.447C0.273,0.461 0.296,0.472 0.32,0.481C0.334,0.475 0.345,0.465 0.353,0.451L0.353,0.451C0.363,0.434 0.365,0.416 0.36,0.397C0.355,0.377 0.345,0.363 0.328,0.353L0.169,0.262L0.176,0.25L0.334,0.342C0.351,0.352 0.369,0.354 0.389,0.348C0.408,0.343 0.423,0.331 0.432,0.314C0.442,0.297 0.445,0.279 0.44,0.26C0.435,0.24 0.424,0.226 0.407,0.216L0.248,0.125L0.255,0.113L0.413,0.205C0.434,0.216 0.447,0.234 0.453,0.256C0.459,0.279 0.456,0.301 0.444,0.321C0.432,0.341 0.415,0.354 0.392,0.361C0.381,0.364 0.37,0.365 0.36,0.364C0.366,0.372 0.371,0.382 0.373,0.393C0.379,0.416 0.376,0.438 0.365,0.458C0.358,0.47 0.348,0.48 0.337,0.488C0.429,0.52 0.526,0.521 0.628,0.492C0.762,0.454 0.863,0.375 0.932,0.257ZM0.569,0.185C0.578,0.183 0.586,0.184 0.594,0.189C0.603,0.193 0.608,0.2 0.61,0.209C0.612,0.218 0.611,0.227 0.607,0.235C0.602,0.243 0.595,0.248 0.586,0.251C0.577,0.254 0.568,0.253 0.56,0.248C0.552,0.243 0.547,0.236 0.544,0.227C0.542,0.218 0.543,0.21 0.548,0.201C0.553,0.193 0.56,0.188 0.569,0.185ZM0.521,0.178L0.514,0.19L0.287,0.058L0.293,0.047L0.521,0.178ZM0.452,-0.184C0.478,-0.179 0.627,-0.151 0.651,-0.146C0.674,-0.141 0.683,-0.117 0.68,-0.103C0.677,-0.089 0.666,-0.069 0.638,-0.074C0.615,-0.078 0.512,-0.098 0.466,-0.107C0.469,-0.099 0.48,-0.078 0.497,-0.059C0.509,-0.046 0.521,-0.034 0.531,-0.024L0.531,-0.024C0.542,-0.013 0.559,-0.002 0.575,0.007C0.575,0.007 0.575,0.007 0.575,0.007C0.591,0.015 0.596,0.034 0.594,0.046C0.591,0.06 0.58,0.08 0.552,0.075C0.523,0.07 0.358,0.038 0.358,0.038C0.345,0.035 0.325,0.022 0.327,-0.001C0.329,-0.028 0.353,-0.038 0.366,-0.035C0.386,-0.032 0.475,-0.015 0.528,-0.004C0.513,-0.014 0.493,-0.029 0.47,-0.05C0.441,-0.078 0.419,-0.109 0.414,-0.132C0.413,-0.136 0.413,-0.14 0.413,-0.145C0.413,-0.146 0.413,-0.148 0.413,-0.15C0.414,-0.156 0.415,-0.162 0.418,-0.167C0.426,-0.181 0.442,-0.186 0.452,-0.184Z" style="fill:#ffffff;fill-rule:nonzero;"/>            </g>        </g>    </g>    <defs fill="#000000">        <linearGradient id="_Linear1" x1="0" y1="0" x2="1" y2="0" gradientUnits="userSpaceOnUse" gradientTransform="matrix(1,0,0,1.00709,-2.16796e-08,0.00942828)" fill="#000000"><stop offset="0" style="stop-color:rgb(176,219,117);stop-opacity:1" fill="#000000"/><stop offset="1" style="stop-color:rgb(121,210,0);stop-opacity:1" fill="#000000"/></linearGradient>    </defs></svg>